<svg width="20" height="20" xmlns="http://www.w3.org/2000/svg">
 <g>
  <title>background</title>
  <rect x="-1" y="-1" width="22" height="22" id="canvas_background" fill="none"/>
 </g>

 <g>
  <title>Layer 1</title>
  <path d="m14.348,14.849c-0.469,0.469 -1.229,0.469 -1.697,0l-2.651,-3.03l-2.651,3.029c-0.469,0.469 -1.229,0.469 -1.697,0c-0.469,-0.469 -0.469,-1.229 0,-1.697l2.758,-3.15l-2.759,-3.152c-0.469,-0.469 -0.469,-1.228 0,-1.697c0.469,-0.469 1.228,-0.469 1.697,0l2.652,3.031l2.651,-3.031c0.469,-0.469 1.228,-0.469 1.697,0c0.469,0.469 0.469,1.229 0,1.697l-2.758,3.152l2.758,3.15c0.469,0.469 0.469,1.229 0,1.698z" id="svg_1" fill="#000000"/>
 </g>
</svg>