<svg width="20" height="20" xmlns="http://www.w3.org/2000/svg">

 <g>
  <title>background</title>
  <rect fill="none" id="canvas_background" height="402" width="582" y="-1" x="-1"/>
 </g>
 <g>
  <title>Layer 1</title>
  <path fill="#ffffff" id="svg_1" d="m16.4,9l-12.8,0c-0.552,0 -0.6,0.447 -0.6,1c0,0.553 0.048,1 0.6,1l12.8,0c0.552,0 0.6,-0.447 0.6,-1c0,-0.553 -0.048,-1 -0.6,-1zm0,4l-12.8,0c-0.552,0 -0.6,0.447 -0.6,1c0,0.553 0.048,1 0.6,1l12.8,0c0.552,0 0.6,-0.447 0.6,-1c0,-0.553 -0.048,-1 -0.6,-1zm-12.8,-6l12.8,0c0.552,0 0.6,-0.447 0.6,-1c0,-0.553 -0.048,-1 -0.6,-1l-12.8,0c-0.552,0 -0.6,0.447 -0.6,1c0,0.553 0.048,1 0.6,1z"/>
 </g>
</svg>