<svg width="20" height="20" xmlns="http://www.w3.org/2000/svg">
 <g>
  <title>background</title>
  <rect x="-1" y="-1" width="3.250111" height="3.250111" id="canvas_background" fill="none"/>
 </g>

 <g>
  <title>Layer 1</title>
  <path d="m16.4,9l-12.8,0c-0.552,0 -0.6,0.447 -0.6,1c0,0.553 0.048,1 0.6,1l12.8,0c0.552,0 0.6,-0.447 0.6,-1c0,-0.553 -0.048,-1 -0.6,-1zm0,4l-12.8,0c-0.552,0 -0.6,0.447 -0.6,1c0,0.553 0.048,1 0.6,1l12.8,0c0.552,0 0.6,-0.447 0.6,-1c0,-0.553 -0.048,-1 -0.6,-1zm-12.8,-6l12.8,0c0.552,0 0.6,-0.447 0.6,-1c0,-0.553 -0.048,-1 -0.6,-1l-12.8,0c-0.552,0 -0.6,0.447 -0.6,1c0,0.553 0.048,1 0.6,1z" id="svg_1" fill="#000000"/>
 </g>
</svg>